<svg xmlns="http://www.w3.org/2000/svg" xmlns:xlink="http://www.w3.org/1999/xlink" viewBox="0 0 80 80" fill="#FFFFFF">
  <path d="M52 6C43.175289 6 36 13.175289 36 22C36 24.122528 36.424437 26.145199 37.177734 28L5 28L5 70L75 70L75 40.220703C78.036595 37.837249 80 34.143882 80 30C80 22.905902 74.26327 17.114874 67.193359 17.009766C65.091531 10.624317 59.081429 6 52 6 z M 52 8C59.743831 8 66 14.256169 66 22C66 29.743831 59.743831 36 52 36C44.256169 36 38 29.743831 38 22C38 14.256169 44.256169 8 52 8 z M 52 10 A 1 1 0 0 0 51 11 A 1 1 0 0 0 52 12 A 1 1 0 0 0 53 11 A 1 1 0 0 0 52 10 z M 47.791016 10.837891 A 1 1 0 0 0 46.791016 11.837891 A 1 1 0 0 0 47.791016 12.837891 A 1 1 0 0 0 48.791016 11.837891 A 1 1 0 0 0 47.791016 10.837891 z M 56.210938 10.837891 A 1 1 0 0 0 55.210938 11.837891 A 1 1 0 0 0 56.210938 12.837891 A 1 1 0 0 0 57.210938 11.837891 A 1 1 0 0 0 56.210938 10.837891 z M 44.220703 13.222656 A 1 1 0 0 0 43.220703 14.222656 A 1 1 0 0 0 44.220703 15.222656 A 1 1 0 0 0 45.220703 14.222656 A 1 1 0 0 0 44.220703 13.222656 z M 59.777344 13.222656 A 1 1 0 0 0 58.777344 14.222656 A 1 1 0 0 0 59.777344 15.222656 A 1 1 0 0 0 60.777344 14.222656 A 1 1 0 0 0 59.777344 13.222656 z M 48.324219 16.431641L47.785156 23.009766L50.175781 23.009766C50.542781 22.415766 51.145031 22.048828 51.957031 22.048828C53.059031 22.048828 53.832031 22.828187 53.832031 23.992188C53.832031 25.140187 53.066031 25.890625 51.957031 25.890625C50.980031 25.890625 50.199406 25.320125 50.066406 24.453125L47.605469 24.453125C47.652469 26.484125 49.379406 28.000953 51.941406 28.001953C54.621406 28.001953 56.394531 26.353641 56.394531 23.931641C56.394531 21.728641 54.863656 20.142578 52.722656 20.142578C51.581656 20.142578 50.784844 20.588203 50.339844 21.283203L50.191406 21.283203L50.410156 18.564453L55.691406 18.564453L55.691406 16.431641L48.324219 16.431641 z M 41.837891 16.791016 A 1 1 0 0 0 40.837891 17.791016 A 1 1 0 0 0 41.837891 18.791016 A 1 1 0 0 0 42.837891 17.791016 A 1 1 0 0 0 41.837891 16.791016 z M 62.162109 16.791016 A 1 1 0 0 0 61.162109 17.791016 A 1 1 0 0 0 62.162109 18.791016 A 1 1 0 0 0 63.162109 17.791016 A 1 1 0 0 0 62.162109 16.791016 z M 67.712891 19.035156C73.45386 19.404135 78 24.165915 78 30C78 36.07466 73.07466 41 67 41C63.453687 41 60.309123 39.312093 58.296875 36.705078C63.997529 34.255526 68 28.589355 68 22C68 20.985875 67.894023 19.997329 67.712891 19.035156 z M 41 21 A 1 1 0 0 0 40 22 A 1 1 0 0 0 41 23 A 1 1 0 0 0 42 22 A 1 1 0 0 0 41 21 z M 63 21 A 1 1 0 0 0 62 22 A 1 1 0 0 0 63 23 A 1 1 0 0 0 64 22 A 1 1 0 0 0 63 21 z M 70.998047 22.072266 A 1 1 0 0 0 69.998047 23.072266 A 1 1 0 0 0 70.998047 24.072266 A 1 1 0 0 0 71.998047 23.072266 A 1 1 0 0 0 70.998047 22.072266 z M 73.925781 24.998047 A 1 1 0 0 0 72.925781 25.998047 A 1 1 0 0 0 73.925781 26.998047 A 1 1 0 0 0 74.925781 25.998047 A 1 1 0 0 0 73.925781 24.998047 z M 41.837891 25.210938 A 1 1 0 0 0 40.837891 26.210938 A 1 1 0 0 0 41.837891 27.210938 A 1 1 0 0 0 42.837891 26.210938 A 1 1 0 0 0 41.837891 25.210938 z M 62.164062 25.210938 A 1 1 0 0 0 61.164062 26.210938 A 1 1 0 0 0 62.164062 27.210938 A 1 1 0 0 0 63.164062 26.210938 A 1 1 0 0 0 62.164062 25.210938 z M 44.220703 28.777344 A 1 1 0 0 0 43.220703 29.777344 A 1 1 0 0 0 44.220703 30.777344 A 1 1 0 0 0 45.220703 29.777344 A 1 1 0 0 0 44.220703 28.777344 z M 59.777344 28.777344 A 1 1 0 0 0 58.777344 29.777344 A 1 1 0 0 0 59.777344 30.777344 A 1 1 0 0 0 60.777344 29.777344 A 1 1 0 0 0 59.777344 28.777344 z M 75 29 A 1 1 0 0 0 74 30 A 1 1 0 0 0 75 31 A 1 1 0 0 0 76 30 A 1 1 0 0 0 75 29 z M 7 30L38.164062 30C40.93512 34.77483 46.091313 38 52 38C53.495871 38 54.93833 37.778005 56.3125 37.392578C58.661353 40.779161 62.580765 43 67 43C69.163542 43 71.20211 42.459565 73 41.517578L73 68L7 68L7 30 z M 47.792969 31.162109 A 1 1 0 0 0 46.792969 32.162109 A 1 1 0 0 0 47.792969 33.162109 A 1 1 0 0 0 48.792969 32.162109 A 1 1 0 0 0 47.792969 31.162109 z M 56.210938 31.162109 A 1 1 0 0 0 55.210938 32.162109 A 1 1 0 0 0 56.210938 33.162109 A 1 1 0 0 0 57.210938 32.162109 A 1 1 0 0 0 56.210938 31.162109 z M 18 32 A 1 1 0 0 0 17 33 A 1 1 0 0 0 18 34 A 1 1 0 0 0 19 33 A 1 1 0 0 0 18 32 z M 22 32 A 1 1 0 0 0 21 33 A 1 1 0 0 0 22 34 A 1 1 0 0 0 23 33 A 1 1 0 0 0 22 32 z M 26 32 A 1 1 0 0 0 25 33 A 1 1 0 0 0 26 34 A 1 1 0 0 0 27 33 A 1 1 0 0 0 26 32 z M 30 32 A 1 1 0 0 0 29 33 A 1 1 0 0 0 30 34 A 1 1 0 0 0 31 33 A 1 1 0 0 0 30 32 z M 34 32 A 1 1 0 0 0 33 33 A 1 1 0 0 0 34 34 A 1 1 0 0 0 35 33 A 1 1 0 0 0 34 32 z M 38 32 A 1 1 0 0 0 37 33 A 1 1 0 0 0 38 34 A 1 1 0 0 0 39 33 A 1 1 0 0 0 38 32 z M 52 32 A 1 1 0 0 0 51 33 A 1 1 0 0 0 52 34 A 1 1 0 0 0 53 33 A 1 1 0 0 0 52 32 z M 73.927734 33.001953 A 1 1 0 0 0 72.927734 34.001953 A 1 1 0 0 0 73.927734 35.001953 A 1 1 0 0 0 74.927734 34.001953 A 1 1 0 0 0 73.927734 33.001953 z M 70.998047 35.927734 A 1 1 0 0 0 69.998047 36.927734 A 1 1 0 0 0 70.998047 37.927734 A 1 1 0 0 0 71.998047 36.927734 A 1 1 0 0 0 70.998047 35.927734 z M 62.998047 35.929688 A 1 1 0 0 0 61.998047 36.929688 A 1 1 0 0 0 62.998047 37.929688 A 1 1 0 0 0 63.998047 36.929688 A 1 1 0 0 0 62.998047 35.929688 z M 16.927734 36.001953 A 1 1 0 0 0 15.927734 37.001953 A 1 1 0 0 0 16.927734 38.001953 A 1 1 0 0 0 17.927734 37.001953 A 1 1 0 0 0 16.927734 36.001953 z M 67 37 A 1 1 0 0 0 66 38 A 1 1 0 0 0 67 39 A 1 1 0 0 0 68 38 A 1 1 0 0 0 67 37 z M 40 38C33.936712 38 29 42.936712 29 49C29 55.063288 33.936712 60 40 60C46.063288 60 51 55.063288 51 49C51 42.936712 46.063288 38 40 38 z M 13.998047 38.927734 A 1 1 0 0 0 12.998047 39.927734 A 1 1 0 0 0 13.998047 40.927734 A 1 1 0 0 0 14.998047 39.927734 A 1 1 0 0 0 13.998047 38.927734 z M 10 40 A 1 1 0 0 0 9 41 A 1 1 0 0 0 10 42 A 1 1 0 0 0 11 41 A 1 1 0 0 0 10 40 z M 40 40C44.982407 40 49 44.017593 49 49C49 53.982407 44.982407 58 40 58C35.017593 58 31 53.982407 31 49C31 44.017593 35.017593 40 40 40 z M 10 44 A 1 1 0 0 0 9 45 A 1 1 0 0 0 10 46 A 1 1 0 0 0 11 45 A 1 1 0 0 0 10 44 z M 70 44 A 1 1 0 0 0 69 45 A 1 1 0 0 0 70 46 A 1 1 0 0 0 71 45 A 1 1 0 0 0 70 44 z M 19 45C16.802706 45 15 46.802706 15 49C15 51.197294 16.802706 53 19 53C21.197294 53 23 51.197294 23 49C23 46.802706 21.197294 45 19 45 z M 60 45C57.802706 45 56 46.802706 56 49C56 51.197294 57.802706 53 60 53C62.197294 53 64 51.197294 64 49C64 46.802706 62.197294 45 60 45 z M 19 47C20.116414 47 21 47.883586 21 49C21 50.116414 20.116414 51 19 51C17.883586 51 17 50.116414 17 49C17 47.883586 17.883586 47 19 47 z M 60 47C61.116414 47 62 47.883586 62 49C62 50.116414 61.116414 51 60 51C58.883586 51 58 50.116414 58 49C58 47.883586 58.883586 47 60 47 z M 10 48 A 1 1 0 0 0 9 49 A 1 1 0 0 0 10 50 A 1 1 0 0 0 11 49 A 1 1 0 0 0 10 48 z M 70 48 A 1 1 0 0 0 69 49 A 1 1 0 0 0 70 50 A 1 1 0 0 0 71 49 A 1 1 0 0 0 70 48 z M 10 52 A 1 1 0 0 0 9 53 A 1 1 0 0 0 10 54 A 1 1 0 0 0 11 53 A 1 1 0 0 0 10 52 z M 70 52 A 1 1 0 0 0 69 53 A 1 1 0 0 0 70 54 A 1 1 0 0 0 71 53 A 1 1 0 0 0 70 52 z M 10 56 A 1 1 0 0 0 9 57 A 1 1 0 0 0 10 58 A 1 1 0 0 0 11 57 A 1 1 0 0 0 10 56 z M 70 56 A 1 1 0 0 0 69 57 A 1 1 0 0 0 70 58 A 1 1 0 0 0 71 57 A 1 1 0 0 0 70 56 z M 65.998047 57.070312 A 1 1 0 0 0 64.998047 58.070312 A 1 1 0 0 0 65.998047 59.070312 A 1 1 0 0 0 66.998047 58.070312 A 1 1 0 0 0 65.998047 57.070312 z M 13.998047 57.072266 A 1 1 0 0 0 12.998047 58.072266 A 1 1 0 0 0 13.998047 59.072266 A 1 1 0 0 0 14.998047 58.072266 A 1 1 0 0 0 13.998047 57.072266 z M 16.925781 59.998047 A 1 1 0 0 0 15.925781 60.998047 A 1 1 0 0 0 16.925781 61.998047 A 1 1 0 0 0 17.925781 60.998047 A 1 1 0 0 0 16.925781 59.998047 z M 63.070312 60.001953 A 1 1 0 0 0 62.070312 61.001953 A 1 1 0 0 0 63.070312 62.001953 A 1 1 0 0 0 64.070312 61.001953 A 1 1 0 0 0 63.070312 60.001953 z M 18 64 A 1 1 0 0 0 17 65 A 1 1 0 0 0 18 66 A 1 1 0 0 0 19 65 A 1 1 0 0 0 18 64 z M 22 64 A 1 1 0 0 0 21 65 A 1 1 0 0 0 22 66 A 1 1 0 0 0 23 65 A 1 1 0 0 0 22 64 z M 26 64 A 1 1 0 0 0 25 65 A 1 1 0 0 0 26 66 A 1 1 0 0 0 27 65 A 1 1 0 0 0 26 64 z M 30 64 A 1 1 0 0 0 29 65 A 1 1 0 0 0 30 66 A 1 1 0 0 0 31 65 A 1 1 0 0 0 30 64 z M 34 64 A 1 1 0 0 0 33 65 A 1 1 0 0 0 34 66 A 1 1 0 0 0 35 65 A 1 1 0 0 0 34 64 z M 38 64 A 1 1 0 0 0 37 65 A 1 1 0 0 0 38 66 A 1 1 0 0 0 39 65 A 1 1 0 0 0 38 64 z M 42 64 A 1 1 0 0 0 41 65 A 1 1 0 0 0 42 66 A 1 1 0 0 0 43 65 A 1 1 0 0 0 42 64 z M 46 64 A 1 1 0 0 0 45 65 A 1 1 0 0 0 46 66 A 1 1 0 0 0 47 65 A 1 1 0 0 0 46 64 z M 50 64 A 1 1 0 0 0 49 65 A 1 1 0 0 0 50 66 A 1 1 0 0 0 51 65 A 1 1 0 0 0 50 64 z M 54 64 A 1 1 0 0 0 53 65 A 1 1 0 0 0 54 66 A 1 1 0 0 0 55 65 A 1 1 0 0 0 54 64 z M 58 64 A 1 1 0 0 0 57 65 A 1 1 0 0 0 58 66 A 1 1 0 0 0 59 65 A 1 1 0 0 0 58 64 z M 62 64 A 1 1 0 0 0 61 65 A 1 1 0 0 0 62 66 A 1 1 0 0 0 63 65 A 1 1 0 0 0 62 64 z" fill="#FFFFFF" />
</svg>