<svg xmlns="http://www.w3.org/2000/svg" xmlns:xlink="http://www.w3.org/1999/xlink" viewBox="0 0 128 128" fill="#FFFFFF">
  <path d="M110.90039 2C109.20039 2 107.90039 3.3 107.90039 5C107.90039 6.7 109.20039 8 110.90039 8L113.69922 8L80 41.800781L50.099609 11.900391C48.899609 10.700391 47.000391 10.700391 45.900391 11.900391L12.900391 44.5C11.700391 45.7 11.700391 47.599219 12.900391 48.699219C13.500391 49.299219 14.3 49.599609 15 49.599609C15.8 49.599609 16.499609 49.299219 17.099609 48.699219L48 18.199219L77.900391 48.099609C79.100391 49.299609 80.999609 49.299609 82.099609 48.099609L118 12.199219L118 15C118 16.7 119.3 18 121 18C122.7 18 124 16.7 124 15L124 5C124 3.8 123.29961 2.6992187 122.09961 2.1992188C121.79961 2.0992187 121.4 2 121 2L120.90039 2L110.90039 2 z M 102 51C100.3 51 99 52.3 99 54L99 124C99 125.7 100.3 127 102 127L120 127C121.7 127 123 125.7 123 124L123 54C123 52.3 121.7 51 120 51L102 51 z M 4.9003906 53.599609C3.2003906 53.599609 1.9 54.999219 2 56.699219L2 57.099609C2 58.699609 3.3996094 60 5.0996094 60C6.7996094 60 8.1 58.600391 8 56.900391L8 56.5C8 54.8 6.6003906 53.599609 4.9003906 53.599609 z M 38 61C36.3 61 35 62.3 35 64L35 124C35 125.7 36.3 127 38 127L56 127C57.7 127 59 125.7 59 124L59 64C59 62.3 57.7 61 56 61L38 61 z M 41 67L53 67L53 121L41 121L41 67 z M 70 81C68.3 81 67 82.3 67 84L67 124C67 125.7 68.3 127 70 127L88 127C89.7 127 91 125.7 91 124L91 84C91 82.3 89.7 81 88 81L70 81 z M 73 87L85 87L85 121L73 121L73 87 z M 6 91C4.3 91 3 92.3 3 94L3 124C3 125.7 4.3 127 6 127L24 127C25.7 127 27 125.7 27 124L27 94C27 92.3 25.7 91 24 91L6 91 z M 9 97L21 97L21 121L9 121L9 97 z" fill="#FFFFFF" />
</svg>