<svg xmlns="http://www.w3.org/2000/svg" xmlns:xlink="http://www.w3.org/1999/xlink" viewBox="0 0 80 80" fill="#FFFFFF">
  <path d="M11 16C8.2504839 16 6 18.250484 6 21L6 59C6 61.749516 8.2504839 64 11 64L69 64C71.749516 64 74 61.749516 74 59L74 21C74 18.250484 71.749516 16 69 16L11 16 z M 11 18L69 18C70.668484 18 72 19.331516 72 21L72 26L8 26L8 21C8 19.331516 9.3315161 18 11 18 z M 8 30L72 30L72 59C72 60.668484 70.668484 62 69 62L11 62C9.3315161 62 8 60.668484 8 59L8 30 z M 12 35 A 1 1 0 0 0 11 36 A 1 1 0 0 0 12 37 A 1 1 0 0 0 13 36 A 1 1 0 0 0 12 35 z M 16 35 A 1 1 0 0 0 15 36 A 1 1 0 0 0 16 37 A 1 1 0 0 0 17 36 A 1 1 0 0 0 16 35 z M 20 35 A 1 1 0 0 0 19 36 A 1 1 0 0 0 20 37 A 1 1 0 0 0 21 36 A 1 1 0 0 0 20 35 z M 24 35 A 1 1 0 0 0 23 36 A 1 1 0 0 0 24 37 A 1 1 0 0 0 25 36 A 1 1 0 0 0 24 35 z M 28 35 A 1 1 0 0 0 27 36 A 1 1 0 0 0 28 37 A 1 1 0 0 0 29 36 A 1 1 0 0 0 28 35 z M 32 35 A 1 1 0 0 0 31 36 A 1 1 0 0 0 32 37 A 1 1 0 0 0 33 36 A 1 1 0 0 0 32 35 z M 36 35 A 1 1 0 0 0 35 36 A 1 1 0 0 0 36 37 A 1 1 0 0 0 37 36 A 1 1 0 0 0 36 35 z M 52 43C48.145666 43 45 46.145666 45 50C45 53.854334 48.145666 57 52 57C53.485878 57 54.862958 56.523344 55.996094 55.730469 A 7 7 0 0 0 60 57 A 7 7 0 0 0 67 50 A 7 7 0 0 0 60 43 A 7 7 0 0 0 55.990234 44.265625C54.858181 43.47519 53.483355 43 52 43 z M 52 45C52.915102 45 53.75982 45.253037 54.494141 45.681641 A 7 7 0 0 0 53 50 A 7 7 0 0 0 54.498047 54.314453C53.762696 54.74469 52.916979 55 52 55C49.226334 55 47 52.773666 47 50C47 47.226334 49.226334 45 52 45 z" fill="#FFFFFF" />
</svg>