<svg xmlns="http://www.w3.org/2000/svg" xmlns:xlink="http://www.w3.org/1999/xlink" viewBox="0 0 24 24" fill="#FFFFFF">
  <path d="M12 3 A 4 4 0 0 0 8 7 A 4 4 0 0 0 12 11 A 4 4 0 0 0 16 7 A 4 4 0 0 0 12 3 z M 8.4726562 14.501953C8.3892187 14.501469 8.3049063 14.511953 8.2226562 14.533203C5.5926562 15.209203 3 16.532 3 18.5L3 20C3 20.552 3.448 21 4 21L20 21C20.552 21 21 20.552 21 20L21 18.5C21 16.532 18.406391 15.209203 15.775391 14.533203C15.446391 14.448203 15.090516 14.539203 14.853516 14.783203C14.129516 15.530203 13.123 16 12 16C10.877 16 9.8714844 15.530203 9.1464844 14.783203C8.9687344 14.600203 8.7229687 14.503406 8.4726562 14.501953 z" fill="#FFFFFF" />
</svg>