<svg xmlns="http://www.w3.org/2000/svg" xmlns:xlink="http://www.w3.org/1999/xlink" viewBox="0 0 50 50" fill="#FFFFFF">
  <path d="M5 4C4.449219 4 4 4.449219 4 5L4 45C4 45.550781 4.449219 46 5 46L45 46C45.550781 46 46 45.550781 46 45L46 5C46 4.449219 45.550781 4 45 4 Z M 6 6L44 6L44 44L6 44 Z M 14 11C12.355469 11 11 12.355469 11 14C11 15.644531 12.355469 17 14 17C15.644531 17 17 15.644531 17 14C17 12.355469 15.644531 11 14 11 Z M 14 13C14.5625 13 15 13.4375 15 14C15 14.5625 14.5625 15 14 15C13.4375 15 13 14.5625 13 14C13 13.4375 13.4375 13 14 13 Z M 21 13C20.640625 12.996094 20.304688 13.183594 20.121094 13.496094C19.941406 13.808594 19.941406 14.191406 20.121094 14.503906C20.304688 14.816406 20.640625 15.003906 21 15L38 15C38.359375 15.003906 38.695313 14.816406 38.878906 14.503906C39.058594 14.191406 39.058594 13.808594 38.878906 13.496094C38.695313 13.183594 38.359375 12.996094 38 13 Z M 14 22C12.355469 22 11 23.355469 11 25C11 26.644531 12.355469 28 14 28C15.644531 28 17 26.644531 17 25C17 23.355469 15.644531 22 14 22 Z M 14 24C14.5625 24 15 24.4375 15 25C15 25.5625 14.5625 26 14 26C13.4375 26 13 25.5625 13 25C13 24.4375 13.4375 24 14 24 Z M 21 24C20.640625 23.996094 20.304688 24.183594 20.121094 24.496094C19.941406 24.808594 19.941406 25.191406 20.121094 25.503906C20.304688 25.816406 20.640625 26.003906 21 26L38 26C38.359375 26.003906 38.695313 25.816406 38.878906 25.503906C39.058594 25.191406 39.058594 24.808594 38.878906 24.496094C38.695313 24.183594 38.359375 23.996094 38 24 Z M 14 33C12.355469 33 11 34.355469 11 36C11 37.644531 12.355469 39 14 39C15.644531 39 17 37.644531 17 36C17 34.355469 15.644531 33 14 33 Z M 14 35C14.5625 35 15 35.4375 15 36C15 36.5625 14.5625 37 14 37C13.4375 37 13 36.5625 13 36C13 35.4375 13.4375 35 14 35 Z M 21 35C20.640625 34.996094 20.304688 35.183594 20.121094 35.496094C19.941406 35.808594 19.941406 36.191406 20.121094 36.503906C20.304688 36.816406 20.640625 37.003906 21 37L38 37C38.359375 37.003906 38.695313 36.816406 38.878906 36.503906C39.058594 36.191406 39.058594 35.808594 38.878906 35.496094C38.695313 35.183594 38.359375 34.996094 38 35Z" fill="#FFFFFF" />
</svg>